<?xml version="1.0" encoding="UTF-8"?>
<svg version="1.1" xmlns="http://www.w3.org/2000/svg" width="60" height="62">
<path d="M0 0 C4.72131358 0.28327881 8.06546156 1.01458045 11.64453125 4.2578125 C14.33694196 7.71837497 15.6380421 11.87406871 17 16 C18.134375 15.38125 19.26875 14.7625 20.4375 14.125 C26.26307859 11.22253975 32.55758669 8.92180216 39 11 C39.061875 11.94875 39.12375 12.8975 39.1875 13.875 C39.455625 14.90625 39.72375 15.9375 40 17 C42.475 17.99 42.475 17.99 45 19 C45 33.19 45 47.38 45 62 C25.2 62 5.4 62 -15 62 C-15 48.14 -15 34.28 -15 20 C-9 17 -9 17 -6 17 C-6 12.38 -6 7.76 -6 3 C-3.03 3.495 -3.03 3.495 0 4 C0 2.68 0 1.36 0 0 Z " fill="#252931" transform="translate(15,0)"/>
<path d="M0 0 C1.8871875 0.0309375 1.8871875 0.0309375 3.8125 0.0625 C4.1425 2.3725 4.4725 4.6825 4.8125 7.0625 C5.4725 7.0625 6.1325 7.0625 6.8125 7.0625 C6.8125 17.9525 6.8125 28.8425 6.8125 40.0625 C2.8525 39.4025 -1.1075 38.7425 -5.1875 38.0625 C-1.19639681 36.0669484 0.51236566 35.86703935 4.8125 36.0625 C4.4825 35.4025 4.1525 34.7425 3.8125 34.0625 C1.9974452 34.46789295 0.18557492 34.88754609 -1.625 35.3125 C-3.13900391 35.66054687 -3.13900391 35.66054687 -4.68359375 36.015625 C-9.044609 37.31858162 -13.07131543 39.13594754 -17.1875 41.0625 C-17.4356617 36.33062906 -17.61654293 31.60257329 -17.73681641 26.86572266 C-17.78695824 25.25697864 -17.85509943 23.64868719 -17.94189453 22.04150391 C-18.21281759 16.89396585 -18.3048514 12.11539642 -17.1875 7.0625 C-14.2669779 3.83899185 -11.28491758 2.39466933 -7.1875 1.0625 C-4.43671116 0.14557039 -2.82801087 -0.04636083 0 0 Z " fill="#E8EDF2" transform="translate(48.1875,12.9375)"/>
<path d="M0 0 C4.72131358 0.28327881 8.06546156 1.01458045 11.64453125 4.2578125 C14.33694196 7.71837497 15.6380421 11.87406871 17 16 C18.134375 15.38125 19.26875 14.7625 20.4375 14.125 C26.26307859 11.22253975 32.55758669 8.92180216 39 11 C39.061875 11.94875 39.12375 12.8975 39.1875 13.875 C39.455625 14.90625 39.72375 15.9375 40 17 C42.475 17.99 42.475 17.99 45 19 C45 33.19 45 47.38 45 62 C25.2 62 5.4 62 -15 62 C-15 59.36 -15 56.72 -15 54 C-14.67 54 -14.34 54 -14 54 C-14 55.98 -14 57.96 -14 60 C-12.75017334 59.94670532 -12.75017334 59.94670532 -11.47509766 59.89233398 C7.12307031 59.12856718 25.39154695 59.04843138 44 60 C44 47.46 44 34.92 44 22 C43.34 22 42.68 22 42 22 C42 33.55 42 45.1 42 57 C34.41 57 26.82 57 19 57 C19 56.67 19 56.34 19 56 C25.93 56 32.86 56 40 56 C40 55.34 40 54.68 40 54 C37.36 53.67 34.72 53.34 32 53 C32 52.67 32 52.34 32 52 C34.31 52 36.62 52 39 52 C39.33 41.44 39.66 30.88 40 20 C39.34 20 38.68 20 38 20 C37.505 21.485 37.505 21.485 37 23 C37 19.7 37 16.4 37 13 C26.06742515 14.29702691 26.06742515 14.29702691 17 20 C15.7265644 24.60448913 15.83181232 29.0614703 15.9375 33.8125 C15.93041016 35.07771484 15.92332031 36.34292969 15.91601562 37.64648438 C15.90424163 40.76659187 15.93365968 43.88073533 16 47 C15.67 47 15.34 47 15 47 C14.98598145 45.70751343 14.98598145 45.70751343 14.97167969 44.38891602 C14.92731758 41.15113419 14.86554932 37.91425352 14.79248047 34.67700195 C14.76448629 33.28356782 14.74316594 31.88998125 14.72900391 30.49633789 C14.69648322 17.45586907 14.69648322 17.45586907 8.48291016 6.39282227 C6.4581781 4.63893578 4.39716355 3.19858177 2 2 C2 13.55 2 25.1 2 37 C1.67 37 1.34 37 1 37 C1 27.1 1 17.2 1 7 C-0.65 6.67 -2.3 6.34 -4 6 C-4 17.55 -4 29.1 -4 41 C-4.33 41 -4.66 41 -5 41 C-5 33.74 -5 26.48 -5 19 C-6.65 19.33 -8.3 19.66 -10 20 C-10 30.89 -10 41.78 -10 53 C-9.01 52.505 -9.01 52.505 -8 52 C-5.6670134 51.95977609 -3.33293334 51.95679753 -1 52 C-1 52.33 -1 52.66 -1 53 C-3.64 53.66 -6.28 54.32 -9 55 C-2.07 55.33 4.86 55.66 12 56 C12 56.33 12 56.66 12 57 C4.41 57 -3.18 57 -11 57 C-11 45.12 -11 33.24 -11 21 C-11.66 21 -12.32 21 -13 21 C-13 30.57 -13 40.14 -13 50 C-13.66 50 -14.32 50 -15 50 C-15 40.1 -15 30.2 -15 20 C-9 17 -9 17 -6 17 C-6 12.38 -6 7.76 -6 3 C-3.03 3.495 -3.03 3.495 0 4 C0 2.68 0 1.36 0 0 Z " fill="#0E0F12" transform="translate(15,0)"/>
<path d="M0 0 C5.67320261 2.26928105 5.67320261 2.26928105 8.25 5.375 C9.00023437 6.25285156 9.00023437 6.25285156 9.765625 7.1484375 C12.42157788 11.13236682 12.11746068 15.2792787 12.09765625 19.953125 C12.0962413 20.61334656 12.09482635 21.27356812 12.09336853 21.95379639 C12.08779245 24.05257794 12.07524447 26.15125095 12.0625 28.25 C12.0574819 29.67708179 12.05291954 31.10416525 12.04882812 32.53125 C12.03783088 36.02086832 12.0205828 39.51042356 12 43 C11.55269531 42.59007812 11.10539062 42.18015625 10.64453125 41.7578125 C10.03996094 41.21898437 9.43539063 40.68015625 8.8125 40.125 C8.22082031 39.59132812 7.62914062 39.05765625 7.01953125 38.5078125 C4.67082069 36.61904659 4.67082069 36.61904659 0 35 C0 23.45 0 11.9 0 0 Z " fill="#DBE3E9" transform="translate(17,2)"/>
<path d="M0 0 C0 7.59 0 15.18 0 23 C1.98 23.33 3.96 23.66 6 24 C8.23046875 25.26953125 8.23046875 25.26953125 10.1875 26.8125 C10.84105469 27.31394531 11.49460937 27.81539062 12.16796875 28.33203125 C14.07636851 30.06952954 15.52189224 31.8903787 17 34 C16.2575 33.835 15.515 33.67 14.75 33.5 C8.14156708 32.61887561 1.48552959 32.3786176 -5 34 C-5 23.11 -5 12.22 -5 1 C-2 0 -2 0 0 0 Z " fill="#CFD6DC" transform="translate(10,19)"/>
<path d="M0 0 C2.475 0.495 2.475 0.495 5 1 C5 11.56 5 22.12 5 33 C6.98 33.33 8.96 33.66 11 34 C14.39455327 36.64732456 16.6502381 39.82579935 17.875 43.9375 C17.91625 44.618125 17.9575 45.29875 18 46 C17.57589844 45.61328125 17.15179687 45.2265625 16.71484375 44.828125 C11.49955045 40.19740304 6.24793822 37.12396911 0 34 C0 22.78 0 11.56 0 0 Z " fill="#D0D4D8" transform="translate(11,6)"/>
<path d="M0 0 C-0.33 11.55 -0.66 23.1 -1 35 C-0.01 34.505 -0.01 34.505 1 34 C3.3329866 33.95977609 5.66706666 33.95679753 8 34 C8 34.33 8 34.66 8 35 C5.36 35.66 2.72 36.32 0 37 C6.93 37.33 13.86 37.66 21 38 C21 38.33 21 38.66 21 39 C13.41 39 5.82 39 -2 39 C-2 27.12 -2 15.24 -2 3 C-2.66 3 -3.32 3 -4 3 C-4 12.57 -4 22.14 -4 32 C-4.66 32 -5.32 32 -6 32 C-6.07407906 27.76419747 -6.12856696 23.52873659 -6.16479492 19.29248047 C-6.17989483 17.85100742 -6.20037658 16.40958041 -6.22631836 14.96826172 C-6.2626513 12.89799657 -6.27971329 10.82833793 -6.29296875 8.7578125 C-6.31653442 6.88826904 -6.31653442 6.88826904 -6.34057617 4.98095703 C-6.22818604 3.99724121 -6.1157959 3.01352539 -6 2 C-3 0 -3 0 0 0 Z " fill="#121720" transform="translate(6,18)"/>
<path d="M0 0 C0.66 0 1.32 0 2 0 C2 12.21 2 24.42 2 37 C10.25 37 18.5 37 27 37 C26.67 37.66 26.34 38.32 26 39 C17.09 39 8.18 39 -1 39 C-1.33 35.7 -1.66 32.4 -2 29 C-1.34 29 -0.68 29 0 29 C0 19.43 0 9.86 0 0 Z " fill="#587ECA" transform="translate(2,21)"/>
<path d="M0 0 C0.33 0 0.66 0 1 0 C1 1.98 1 3.96 1 6 C1.82798096 5.96970703 2.65596191 5.93941406 3.5090332 5.90820312 C22.34969201 5.23286415 41.14440707 4.84816482 60 5 C60 5.99 60 6.98 60 8 C40.2 8 20.4 8 0 8 C0 5.36 0 2.72 0 0 Z " fill="#050506" transform="translate(0,54)"/>
<path d="M0 0 C0.66 0 1.32 0 2 0 C2 12.54 2 25.08 2 38 C-6.58 38 -15.16 38 -24 38 C-24.33 37.34 -24.66 36.68 -25 36 C-16.75 36 -8.5 36 0 36 C0 24.12 0 12.24 0 0 Z " fill="#5787E7" transform="translate(57,22)"/>
<path d="M0 0 C1.68609375 0.02320313 1.68609375 0.02320313 3.40625 0.046875 C5.93957988 0.21320474 8.08419493 0.51578473 10.5 1.25 C10.5 1.91 10.5 2.57 10.5 3.25 C3.57 3.25 -3.36 3.25 -10.5 3.25 C-6.13532468 -0.02350649 -5.18773261 -0.11898469 0 0 Z " fill="#AFBFCD" transform="translate(44.5,52.75)"/>
<path d="M0 0 C0 0.33 0 0.66 0 1 C-7.26 1 -14.52 1 -22 1 C-18.92564815 -5.1487037 -5.05917461 -2.24852205 0 0 Z " fill="#AFBFCC" transform="translate(27,55)"/>
<path d="M0 0 C0.66 0 1.32 0 2 0 C2.33 8.91 2.66 17.82 3 27 C-2.94 26.01 -2.94 26.01 -9 25 C-5 23 -5 23 1 23 C0.67 15.41 0.34 7.82 0 0 Z " fill="#B1B7BC" transform="translate(52,26)"/>
<path d="M0 0 C0.66 0 1.32 0 2 0 C2 9.24 2 18.48 2 28 C1.67 28 1.34 28 1 28 C1 20.74 1 13.48 1 6 C0.34 6 -0.32 6 -1 6 C-0.67 4.02 -0.34 2.04 0 0 Z " fill="#DEE6EB" transform="translate(53,20)"/>
<path d="M0 0 C0 0.33 0 0.66 0 1 C-0.71285156 1.10957031 -1.42570312 1.21914062 -2.16015625 1.33203125 C-7.87594422 2.27825187 -12.79195618 3.45384524 -18 6 C-16.98601968 2.73273008 -15.93743422 1.96297127 -12.9375 0.1875 C-8.55573908 -1.53192517 -4.52670535 -0.85196495 0 0 Z " fill="#111212" transform="translate(52,12)"/>
<path d="M0 0 C6.68363952 1.27984587 10.86824619 4.6479004 16 9 C15.34 9.66 14.68 10.32 14 11 C13.5875 10.60167969 13.175 10.20335937 12.75 9.79296875 C8.39728536 5.7997417 4.62970004 3.77780001 -1 2 C-0.67 1.34 -0.34 0.68 0 0 Z " fill="#262728" transform="translate(11,40)"/>
<path d="M0 0 C0.66 0.99 1.32 1.98 2 3 C-2.68965706 4.11658501 -5.53763531 3.80619523 -10 2 C-5.97723701 -0.68184199 -4.66868926 -1.40060678 0 0 Z " fill="#313233" transform="translate(47,49)"/>
<path d="M0 0 C5.35048061 0.37328935 7.50912907 1.9957657 11 6 C7.40239524 6 6.7784377 5.10487704 4 3 C1.85266073 2.29485154 1.85266073 2.29485154 0 2 C0 1.34 0 0.68 0 0 Z " fill="#303132" transform="translate(16,37)"/>
</svg>
